<svg width="1024" height="786" viewBox="0 0 1024 786" fill="none" xmlns="http://www.w3.org/2000/svg">
<path id="background" d="M175.73 116.43C170.25 123.08 168.14 132.43 165.78 141.22C146.78 212.06 99.96 269.04 46.64 309.74C24.06 326.98 -3.43002 350.1 1.50998 381.01C4.16998 397.61 15.84 409.83 24.51 423.35C42.7 451.66 48.6 490.14 39.93 524.03C30.07 562.59 2.50998 598.57 11.04 637.56C16.3 661.56 34.16 678.64 51.33 693.32C78.1166 716.207 105.757 737.647 134.25 757.64C153.35 771.04 173.67 784.08 195.93 785.78C215.53 787.28 234.73 779.83 253.34 772.48C269.6 766.05 286.27 759.36 299.4 746.48C307.97 738.07 314.8 727.22 324.32 720.34C346.68 704.18 375.4 714.42 401.04 721.34C461.54 737.58 526.29 731.65 583.86 704.6C672.17 663.1 739.48 575.95 825.86 529.19C863 509.08 903.4 496.6 937.79 470.7C957.165 455.953 973.815 437.936 986.99 417.46C1012.99 377.35 1027.05 326.21 1022.99 276.15C1018.93 226.09 996.18 177.85 960.45 149.59C922.2 119.34 873.89 113.69 830.37 95.53C785.43 76.77 745.45 44.53 700.94 24.4C664.924 8.15668 625.728 0.18287 586.228 1.06364C546.728 1.94442 507.926 11.6574 472.67 29.49C424.23 53.99 375.13 111.15 321.18 115.49C282.74 118.49 205.75 80.01 175.73 116.43Z" fill="url(#paint0_linear)"/>
<g id="undraw_junior_soccer_6sop 1">
<g clip-path="url(#clip0)">
<path id="Vector" d="M933 643.065H84V645.065H933V643.065Z" fill="#3F3D56"/>
<g id="right-arm">
<path id="Vector_2" d="M367.344 318.239C367.344 318.239 328.809 306.235 334.725 325.984C340.64 345.733 373.098 335.757 373.098 335.757L367.344 318.239Z" fill="#FFB8B8"/>
<path id="Vector_3" d="M514.646 244.114C514.646 244.114 494.898 217.127 475.711 245.143C456.487 273.213 438.613 296.258 438.613 296.258L390.868 311.825L363.245 314.276L370.855 338.834L451.168 327.183C451.168 327.183 540.582 274.069 514.646 244.114Z" fill="#2F2E41"/>
</g>
<g id="right-leg">
<path id="Vector_4" d="M426.5 393.565C426.5 393.565 396.5 414.565 398.5 433.565C400.5 452.565 413.5 504.565 413.5 504.565L440.5 500.565C440.5 500.565 443.5 460.565 433.5 445.565L481.5 418.565L426.5 393.565Z" fill="#FFB8B8"/>
<path id="Vector_5" d="M440.5 495.565L411.5 501.565L416.652 522.748C419.188 533.173 419.477 544.019 417.5 554.565V554.565C417.5 554.565 447.5 562.565 447.5 558.565C447.5 554.565 440.5 538.565 442.5 527.565C444.5 516.565 440.5 495.565 440.5 495.565Z" fill="#6C63FF"/>
<path id="Vector_6" d="M455.5 570.565C454.5 566.565 446.192 548.43 445.846 551.497C445.5 554.565 429.5 559.565 423.5 553.565C423.5 553.565 415.5 546.565 412.5 553.565C409.5 560.565 403.5 572.565 403.5 572.565C403.5 572.565 376.5 585.565 380.5 592.565C381.309 593.981 383.55 594.578 386.611 594.631C386.539 594.816 386.501 595.012 386.5 595.211V595.92C386.5 596.356 386.673 596.775 386.982 597.083C387.291 597.392 387.709 597.565 388.146 597.565H388.854C389.291 597.565 389.709 597.392 390.018 597.083C390.327 596.775 390.5 596.356 390.5 595.92V595.211C390.498 594.956 390.437 594.704 390.32 594.477C391.138 594.406 391.987 594.311 392.859 594.196C392.628 594.484 392.501 594.842 392.5 595.211V595.92C392.5 596.356 392.673 596.775 392.982 597.083C393.291 597.392 393.709 597.565 394.146 597.565H394.854C395.291 597.565 395.709 597.392 396.018 597.083C396.327 596.775 396.5 596.356 396.5 595.92V595.211C396.499 594.918 396.42 594.63 396.27 594.378C396.12 594.126 395.906 593.919 395.649 593.778C397.951 593.394 400.353 592.905 402.742 592.364C402.585 592.619 402.501 592.912 402.5 593.211V593.92C402.5 594.356 402.673 594.775 402.982 595.083C403.291 595.392 403.709 595.565 404.146 595.565H404.854C405.291 595.565 405.709 595.392 406.018 595.083C406.327 594.775 406.5 594.356 406.5 593.92V593.211C406.5 592.893 406.407 592.582 406.234 592.315C406.06 592.048 405.813 591.838 405.522 591.709C407.313 591.272 409.069 590.817 410.74 590.366C410.584 590.62 410.501 590.912 410.5 591.211V591.92C410.5 592.356 410.673 592.775 410.982 593.083C411.291 593.392 411.709 593.565 412.146 593.565H412.854C413.291 593.565 413.709 593.392 414.018 593.083C414.327 592.775 414.5 592.356 414.5 591.92V591.211C414.499 590.861 414.386 590.52 414.178 590.239C413.97 589.958 413.677 589.75 413.343 589.647C419.215 587.993 423.5 586.565 423.5 586.565C423.5 586.565 428.476 584.755 434.5 582.309V582.92C434.5 583.356 434.673 583.775 434.982 584.083C435.291 584.392 435.709 584.565 436.146 584.565H436.854C437.291 584.565 437.709 584.392 438.018 584.083C438.327 583.775 438.5 583.356 438.5 582.92V582.211C438.499 581.961 438.442 581.715 438.331 581.492C438.221 581.268 438.061 581.072 437.864 580.92C439.073 580.411 440.293 579.889 441.5 579.357V579.92C441.5 580.356 441.673 580.775 441.982 581.083C442.291 581.392 442.709 581.565 443.146 581.565H443.854C444.291 581.565 444.709 581.392 445.018 581.083C445.327 580.775 445.5 580.356 445.5 579.92V579.211C445.5 578.946 445.436 578.685 445.313 578.451C445.19 578.216 445.013 578.015 444.796 577.864C446.101 577.255 447.357 576.647 448.516 576.051C448.511 576.105 448.5 576.156 448.5 576.211V576.92C448.5 577.356 448.673 577.775 448.982 578.083C449.291 578.392 449.709 578.565 450.146 578.565H450.854C451.291 578.565 451.709 578.392 452.018 578.083C452.327 577.775 452.5 577.356 452.5 576.92V576.211C452.5 575.832 452.369 575.464 452.129 575.17C451.889 574.876 451.555 574.674 451.183 574.598C453.979 572.975 455.742 571.534 455.5 570.565Z" fill="#2F2E41"/>
<path id="Vector_7" d="M420.233 522.459C420.233 522.459 425.65 513.152 431.112 515.615C436.574 518.077 440.091 519.953 440.091 519.953C440.091 519.953 425.392 516.177 420.233 522.459Z" fill="#2F2E41"/>
</g>
<g id="body">
<path id="Vector_8" d="M493 443.065C493 443.065 491 480.065 496 495.065C501 510.065 506 566.065 506 566.065H534C534 566.065 547 517.065 531 495.065C531 495.065 526 466.065 540 452.065L493 443.065Z" fill="#FFB8B8"/>
<path id="Vector_9" d="M486.5 340.565C486.5 340.565 421.5 381.565 421.5 394.565L473.5 437.565L491.5 417.565L489.5 447.565L545.5 458.565C545.5 458.565 565.5 382.565 564.5 379.565C563.5 376.565 560.5 332.565 560.5 332.565L486.5 340.565Z" fill="#2F2E41"/>
<path id="Vector_10" d="M536 561.565L504.32 559.565C504.32 559.565 506.24 592.565 502.4 603.565C498.56 614.565 500.48 618.565 500.48 618.565L528.32 620.565L536 561.565Z" fill="#6C63FF"/>
<path id="Vector_11" d="M536.39 634.5C536.246 630.379 531.901 610.91 530.924 613.838C529.946 616.766 513.255 618.32 508.638 611.201C508.638 611.201 502.273 602.687 497.879 608.908C493.486 615.128 485.116 625.614 485.116 625.614C485.116 625.614 455.999 632.698 458.451 640.378C458.947 641.932 461.015 642.983 463.997 643.672C463.888 643.838 463.81 644.023 463.768 644.217L463.62 644.91C463.529 645.337 463.611 645.782 463.849 646.148C464.086 646.515 464.459 646.772 464.886 646.863L465.579 647.01C466.006 647.101 466.452 647.019 466.818 646.782C467.184 646.544 467.441 646.171 467.532 645.744L467.68 645.051C467.731 644.801 467.723 644.542 467.657 644.296C468.472 644.396 469.321 644.481 470.198 644.55C469.912 644.784 469.714 645.107 469.636 645.468L469.488 646.161C469.397 646.588 469.479 647.033 469.717 647.4C469.954 647.766 470.327 648.023 470.754 648.114L471.447 648.261C471.874 648.352 472.32 648.27 472.686 648.033C473.052 647.795 473.309 647.422 473.4 646.995L473.548 646.302C473.608 646.015 473.59 645.717 473.497 645.44C473.403 645.162 473.236 644.915 473.014 644.723C475.345 644.827 477.797 644.85 480.246 644.819C480.039 645.035 479.896 645.304 479.833 645.597L479.685 646.29C479.594 646.717 479.676 647.162 479.914 647.529C480.151 647.895 480.525 648.152 480.951 648.243L481.644 648.39C482.071 648.481 482.517 648.399 482.883 648.162C483.249 647.924 483.506 647.551 483.597 647.124L483.745 646.431C483.811 646.12 483.785 645.796 483.671 645.499C483.557 645.202 483.359 644.945 483.101 644.758C484.944 644.705 486.757 644.625 488.485 644.532C488.28 644.749 488.137 645.017 488.074 645.309L487.926 646.002C487.835 646.429 487.917 646.874 488.155 647.241C488.392 647.607 488.766 647.864 489.193 647.955L489.886 648.102C490.312 648.193 490.758 648.111 491.124 647.874C491.49 647.636 491.747 647.263 491.838 646.836L491.986 646.143C492.058 645.8 492.019 645.444 491.874 645.125C491.729 644.807 491.486 644.543 491.18 644.372C497.269 643.979 501.757 643.476 501.757 643.476C501.757 643.476 507.001 642.743 513.403 641.607L513.275 642.204C513.184 642.631 513.266 643.076 513.504 643.442C513.741 643.809 514.115 644.066 514.542 644.157L515.235 644.304C515.661 644.395 516.107 644.313 516.473 644.076C516.839 643.838 517.096 643.465 517.187 643.038L517.335 642.345C517.386 642.101 517.381 641.848 517.32 641.606C517.259 641.364 517.143 641.14 516.982 640.949C518.271 640.704 519.573 640.448 520.864 640.179L520.747 640.729C520.656 641.156 520.738 641.602 520.976 641.968C521.213 642.334 521.586 642.591 522.013 642.682L522.706 642.83C523.133 642.921 523.579 642.838 523.945 642.601C524.311 642.363 524.568 641.99 524.659 641.563L524.807 640.87C524.862 640.611 524.853 640.343 524.782 640.088C524.711 639.833 524.58 639.599 524.399 639.406C525.802 639.083 527.158 638.75 528.415 638.409C528.399 638.46 528.378 638.508 528.366 638.562L528.219 639.255C528.128 639.682 528.21 640.127 528.447 640.493C528.685 640.86 529.058 641.116 529.485 641.207L530.178 641.355C530.605 641.446 531.05 641.364 531.417 641.126C531.783 640.889 532.04 640.516 532.131 640.089L532.278 639.396C532.357 639.025 532.306 638.638 532.132 638.3C531.959 637.963 531.674 637.696 531.327 637.544C534.4 636.539 536.425 635.498 536.39 634.5Z" fill="#2F2E41"/>
<path id="Vector_12" d="M486.5 210.565C502.516 210.565 515.5 197.582 515.5 181.565C515.5 165.549 502.516 152.565 486.5 152.565C470.484 152.565 457.5 165.549 457.5 181.565C457.5 197.582 470.484 210.565 486.5 210.565Z" fill="#FFB8B8"/>
<path id="Vector_13" d="M512.5 178.565C512.5 178.565 528.5 198.565 536.5 197.565L501.5 224.565C501.5 224.565 497.5 207.565 492.5 205.565C487.5 203.565 512.5 178.565 512.5 178.565Z" fill="#FFB8B8"/>
<path id="Vector_14" d="M575 327.065C575 327.065 574.998 216.719 556.487 207.213C537.987 197.713 525.749 192.291 525.749 192.291C525.477 195.912 524.448 199.435 522.729 202.634C521.01 205.832 518.639 208.634 515.769 210.858C509.635 215.594 503.524 219.521 500.11 219.533L500 219.065L499.584 217.876L489.5 233.565C489.5 233.565 480.5 235.565 477.5 241.565C475.877 244.811 483.531 277.488 479 307.065C475.156 332.159 458.959 354.811 458.5 357.565C457.724 362.221 477.41 350.023 486.275 344.321C486.407 344.468 486.5 344.565 486.5 344.565C486.5 344.565 481.5 346.565 491.5 343.565C497.166 341.865 505.077 341.771 510.872 342.008C510.865 343.746 510.906 345.126 511 346.065C512 356.065 562 370.065 569 367.065C576 364.065 575 327.065 575 327.065Z" fill="#2F2E41"/>
<path id="Vector_15" d="M540 365.065C540 365.065 510 392.065 530 397.065C550 402.065 558 369.065 558 369.065L540 365.065Z" fill="#FFB8B8"/>
<path id="Vector_16" d="M505 435.065C505 435.065 519 422.065 527 429.065C535 436.065 540 441.065 540 441.065C540 441.065 517 427.065 505 435.065Z" fill="#6C63FF"/>
<path id="Vector_17" d="M508.636 590.614C508.636 590.614 516.527 583.286 521.036 587.232C525.545 591.177 528.364 593.995 528.364 593.995C528.364 593.995 515.4 586.105 508.636 590.614Z" fill="#2F2E41"/>
<path id="Vector_18" d="M567.444 220.934C557.531 201.008 527.369 211.876 532.27 233.585C532.344 233.908 532.42 234.235 532.5 234.565C537.666 255.115 546.107 274.699 557.5 292.565L546.5 341.565L534.5 366.565L559.5 372.565L590.5 297.565C590.5 297.565 581.949 250.092 567.444 220.934Z" fill="#2F2E41"/>
<path id="Vector_19" opacity="0.2" d="M553 294.065L534 366.065L550 332.065L553 294.065Z" fill="black"/>
<path id="Vector_20" d="M504.713 147.761C504.713 147.761 488.683 130.885 472.547 141.513C456.412 152.141 448.758 162.465 450.34 169.654C451.922 176.843 456.604 186.842 456.604 186.842C456.604 186.842 453.694 171.949 467.055 170.847C480.415 169.745 498.874 160.903 498.874 160.903L511.359 187.567C511.359 187.567 513.124 181.388 518.018 183.16C522.912 184.933 519.119 149.738 504.713 147.761Z" fill="#2F2E41"/>
</g>
<g id="ball">
<path id="Vector_21" d="M402 529.065C401.999 531.598 401.788 534.127 401.37 536.625V536.635C400.222 543.356 397.562 549.727 393.591 555.269C389.62 560.811 384.442 565.379 378.448 568.628C372.454 571.876 365.8 573.72 358.989 574.021C352.178 574.322 345.387 573.072 339.13 570.365H339.12C337.269 569.566 335.474 568.641 333.75 567.595C328.406 564.369 323.79 560.067 320.196 554.963C316.602 549.859 314.107 544.064 312.87 537.945C312.29 535.021 311.999 532.047 312 529.065C312 527.705 312.06 526.355 312.18 525.025V525.015C313.218 513.532 318.624 502.886 327.282 495.272C335.941 487.659 347.192 483.659 358.713 484.099C370.235 484.539 381.148 489.385 389.2 497.637C397.253 505.889 401.831 516.917 401.99 528.445V528.455C402 528.665 402 528.855 402 529.065Z" fill="#6C63FF"/>
<path id="Vector_22" d="M368.077 514.035H347.923L337.845 496.585L344.681 484.737L345.08 484.63C353.733 482.317 362.872 482.573 371.383 485.365L371.745 485.485L378.155 496.585L368.077 514.035ZM349.077 512.035H366.923L375.845 496.585L370.396 487.147C362.488 484.64 354.035 484.4 345.998 486.456L340.155 496.585L349.077 512.035Z" fill="white"/>
<path id="Vector_23" d="M367.077 550.036H346.923L336.845 532.582L346.923 515.128H367.077L377.155 532.582L367.077 550.036ZM348.077 548.036H365.923L374.845 532.582L365.923 517.128H348.077L339.155 532.582L348.077 548.036Z" fill="white"/>
<path id="Vector_24" d="M357 575.065C350.715 575.077 344.495 573.789 338.731 571.282L337.704 570.836L347.922 553.125H368.077L377.865 570.08L376.893 570.547C370.689 573.537 363.887 575.082 357 575.065V575.065ZM340.563 569.882C346.061 572.094 351.95 573.174 357.875 573.057C363.801 572.94 369.642 571.628 375.048 569.2L366.923 555.125H349.078L340.563 569.882Z" fill="white"/>
<path id="Vector_25" d="M401.077 532.035H380.923L370.845 514.585L380.922 497.125H390.1L390.396 497.436C398.354 505.809 402.853 516.881 402.99 528.432V528.722L401.077 532.035ZM382.077 530.035H399.923L400.986 528.194C400.793 517.386 396.608 507.032 389.237 499.125H382.078L373.155 514.585L382.077 530.035Z" fill="white"/>
<path id="Vector_26" d="M380.645 568.547L370.845 551.585L380.922 534.125H401.076L402.37 536.355L402.356 536.803C401.263 543.171 398.844 549.238 395.256 554.611C391.667 559.984 386.989 564.543 381.524 567.991L380.645 568.547ZM373.155 551.585L381.33 565.733C386.282 562.443 390.518 558.185 393.782 553.215C397.046 548.245 399.272 542.666 400.324 536.814L399.924 536.125H382.078L373.155 551.585Z" fill="white"/>
<path id="Vector_27" d="M334.106 568.978L333.233 568.451C327.772 565.15 323.055 560.752 319.382 555.535C315.708 550.318 313.157 544.395 311.89 538.141L311.815 537.771L313.923 534.125H334.078L344.155 551.585L334.106 568.978ZM313.926 538.116C315.141 543.858 317.489 549.299 320.833 554.122C324.177 558.944 328.449 563.051 333.4 566.202L341.845 551.585L332.922 536.125H315.077L313.926 538.116Z" fill="white"/>
<path id="Vector_28" d="M334.077 530.035H313.923L311.18 525.294V525.025C312.168 513.693 317.331 503.131 325.669 495.392L325.957 495.125H334.078L344.155 512.585L334.077 530.035ZM315.077 528.035H332.923L341.845 512.585L332.922 497.125H326.746C319.031 504.406 314.22 514.239 313.205 524.799L315.077 528.035Z" fill="white"/>
</g>
</g>
</g>
<defs>
<linearGradient id="paint0_linear" x1="1.00003" y1="676.5" x2="864" y2="62" gradientUnits="userSpaceOnUse">
<stop stop-color="#7F77FF"/>
<stop offset="0.760417" stop-color="#99FFF9"/>
</linearGradient>
<clipPath id="clip0">
<rect x="84" y="138" width="856.974" height="510.427" fill="white"/>
</clipPath>
</defs>
</svg>
